<svg width="25" height="24" viewBox="0 0 25 24" fill="none" xmlns="http://www.w3.org/2000/svg">
<path d="M3.4 7.15002C3.65 6.90002 3.946 6.77502 4.288 6.77502C4.62933 6.77502 4.925 6.90002 5.175 7.15002L12.5 14.475L19.85 7.12502C20.0833 6.89169 20.375 6.77502 20.725 6.77502C21.075 6.77502 21.375 6.90002 21.625 7.15002C21.875 7.40002 22 7.69602 22 8.03802C22 8.37936 21.875 8.67502 21.625 8.92502L13.2 17.325C13.1 17.425 12.9917 17.496 12.875 17.538C12.7583 17.5794 12.6333 17.6 12.5 17.6C12.3667 17.6 12.2417 17.5794 12.125 17.538C12.0083 17.496 11.9 17.425 11.8 17.325L3.375 8.90002C3.14167 8.66669 3.025 8.37936 3.025 8.03802C3.025 7.69602 3.15 7.40002 3.4 7.15002Z" fill="#666666"/>
</svg>
