<svg width="32" height="32" viewBox="0 0 32 32" fill="none" xmlns="http://www.w3.org/2000/svg">
<path d="M17.3333 5.34533C17.3333 4.99171 17.1928 4.65257 16.9428 4.40253C16.6928 4.15248 16.3536 4.012 16 4.012C15.6464 4.012 15.3072 4.15248 15.0572 4.40253C14.8071 4.65257 14.6667 4.99171 14.6667 5.34533L14.6627 16.016C14.6627 16.3696 14.8031 16.7088 15.0532 16.9588C15.3032 17.2089 15.6424 17.3493 15.996 17.3493C16.3496 17.3493 16.6888 17.2089 16.9388 16.9588C17.1888 16.7088 17.3293 16.3696 17.3293 16.016L17.3333 5.34667V5.34533Z" fill="#666666"/>
<path d="M5.33331 17.3227C5.33331 14.376 6.52665 11.7093 8.45731 9.78L10.3426 11.6653C9.22377 12.7841 8.46179 14.2096 8.15307 15.7615C7.84435 17.3133 8.00274 18.9219 8.60823 20.3837C9.21371 21.8456 10.2391 23.095 11.5547 23.9741C12.8703 24.8532 14.417 25.3224 15.9993 25.3224C17.5816 25.3224 19.1283 24.8532 20.4439 23.9741C21.7595 23.095 22.7849 21.8456 23.3904 20.3837C23.9959 18.9219 24.1543 17.3133 23.8456 15.7615C23.5368 14.2096 22.7749 12.7841 21.656 11.6653L23.5426 9.78C24.783 11.0204 25.6982 12.5475 26.2074 14.2261C26.7166 15.9047 26.8039 17.6829 26.4617 19.4033C26.1194 21.1238 25.3582 22.7332 24.2454 24.0892C23.1326 25.4451 21.7026 26.5057 20.082 27.177C18.4614 27.8482 16.7003 28.1095 14.9546 27.9376C13.2089 27.7657 11.5326 27.1659 10.0741 26.1914C8.61557 25.2169 7.41989 23.8977 6.59296 22.3508C5.76603 20.8038 5.33338 19.0768 5.33331 17.3227Z" fill="#666666"/>
</svg>
