<svg width="32" height="32" viewBox="0 0 32 32" fill="none" xmlns="http://www.w3.org/2000/svg">
<path d="M18.5 29.3333H13.5C13.1666 29.3333 12.8778 29.2222 12.6333 29C12.3889 28.7778 12.2444 28.5 12.2 28.1667L11.8 25.0667C11.5111 24.9555 11.2391 24.8222 10.984 24.6667C10.728 24.5111 10.4778 24.3444 10.2333 24.1667L7.33331 25.3667C7.0222 25.4778 6.71109 25.4889 6.39998 25.4C6.08887 25.3111 5.84443 25.1222 5.66665 24.8333L3.19998 20.5333C3.0222 20.2444 2.96665 19.9333 3.03332 19.6C3.09998 19.2667 3.26665 19 3.53332 18.8L6.03332 16.9C6.01109 16.7444 5.99998 16.5942 5.99998 16.4493V15.5493C5.99998 15.4053 6.01109 15.2555 6.03332 15.1L3.53332 13.2C3.26665 13 3.09998 12.7333 3.03332 12.4C2.96665 12.0667 3.0222 11.7555 3.19998 11.4667L5.66665 7.16666C5.8222 6.85555 6.06087 6.66088 6.38265 6.58266C6.70532 6.50532 7.0222 6.52221 7.33331 6.63332L10.2333 7.83332C10.4778 7.65555 10.7333 7.48888 11 7.33332C11.2666 7.17777 11.5333 7.04443 11.8 6.93332L12.2 3.83332C12.2444 3.49999 12.3889 3.22221 12.6333 2.99999C12.8778 2.77777 13.1666 2.66666 13.5 2.66666H18.5C18.8333 2.66666 19.1222 2.77777 19.3666 2.99999C19.6111 3.22221 19.7555 3.49999 19.8 3.83332L20.2 6.93332C20.4889 7.04443 20.7613 7.17777 21.0173 7.33332C21.2724 7.48888 21.5222 7.65555 21.7666 7.83332L24.6666 6.63332C24.9778 6.52221 25.2889 6.5111 25.6 6.59999C25.9111 6.68888 26.1555 6.87777 26.3333 7.16666L28.8 11.4667C28.9778 11.7555 29.0333 12.0667 28.9666 12.4C28.9 12.7333 28.7333 13 28.4666 13.2L25.9666 15.1C25.9889 15.2555 26 15.4053 26 15.5493V16.4493C26 16.5942 25.9778 16.7444 25.9333 16.9L28.4333 18.8C28.7 19 28.8666 19.2667 28.9333 19.6C29 19.9333 28.9444 20.2444 28.7666 20.5333L26.3 24.8C26.1222 25.0889 25.8724 25.2835 25.5506 25.384C25.228 25.4835 24.9111 25.4778 24.6 25.3667L21.7666 24.1667C21.5222 24.3444 21.2666 24.5111 21 24.6667C20.7333 24.8222 20.4666 24.9555 20.2 25.0667L19.8 28.1667C19.7555 28.5 19.6111 28.7778 19.3666 29C19.1222 29.2222 18.8333 29.3333 18.5 29.3333ZM16.0666 20.6667C17.3555 20.6667 18.4555 20.2111 19.3666 19.3C20.2778 18.3889 20.7333 17.2889 20.7333 16C20.7333 14.7111 20.2778 13.6111 19.3666 12.7C18.4555 11.7889 17.3555 11.3333 16.0666 11.3333C14.7555 11.3333 13.6498 11.7889 12.7493 12.7C11.8498 13.6111 11.4 14.7111 11.4 16C11.4 17.2889 11.8498 18.3889 12.7493 19.3C13.6498 20.2111 14.7555 20.6667 16.0666 20.6667Z" fill="#666666"/>
</svg>
