<svg width="32" height="32" viewBox="0 0 32 32" fill="none" xmlns="http://www.w3.org/2000/svg">
<path d="M2.66669 26.6667H29.3334V29.3333H2.66669V26.6667ZM5.33335 16H8.00002V25.3333H5.33335V16ZM12 16H14.6667V25.3333H12V16ZM17.3334 16H20V25.3333H17.3334V16ZM24 16H26.6667V25.3333H24V16ZM2.66669 9.33332L16 2.66666L29.3334 9.33332V14.6667H2.66669V9.33332ZM5.33335 10.9813V12H26.6667V10.9813L16 5.64799L5.33335 10.9813ZM16 10.6667C15.6464 10.6667 15.3073 10.5262 15.0572 10.2761C14.8072 10.0261 14.6667 9.68694 14.6667 9.33332C14.6667 8.9797 14.8072 8.64056 15.0572 8.39051C15.3073 8.14047 15.6464 7.99999 16 7.99999C16.3536 7.99999 16.6928 8.14047 16.9428 8.39051C17.1929 8.64056 17.3334 8.9797 17.3334 9.33332C17.3334 9.68694 17.1929 10.0261 16.9428 10.2761C16.6928 10.5262 16.3536 10.6667 16 10.6667Z" fill="#666666"/>
</svg>
