<svg xmlns="http://www.w3.org/2000/svg" width="287" height="194" fill="none"><g clip-path="url(#a)"><path fill="#40DA59" d="M287 124.602a70.718 70.718 0 0 1-1.723 15.595 65.857 65.857 0 0 1-1.347 5.051 63.168 63.168 0 0 1-2.174 5.977 57.255 57.255 0 0 1-1.313 2.897 42.327 42.327 0 0 1-2.966 15.663c-3.549 8.862-9.877 16.027-17.832 20.19-4.973 2.608-10.408 3.98-15.919 4.017H54.482c-8.42.02-16.694-2.411-23.982-7.045l-.112-.07a48.381 48.381 0 0 1-3.036-2.121 48.82 48.82 0 0 1-6.23-5.645 50.392 50.392 0 0 1-6.85-9.326c-4.56-7.957-6.975-17.17-6.967-26.572-4.617-8.904-7.31-19.57-7.31-31.031 0-14.46 4.279-27.651 11.309-37.637a51.571 51.571 0 0 1 4.803-5.872 45.857 45.857 0 0 1 5.492-4.94 42.136 42.136 0 0 1 4.873-3.214 38.912 38.912 0 0 1 6.399-2.868 34.188 34.188 0 0 1 2.351-.712 35.025 35.025 0 0 1 6.394-1.096 34.315 34.315 0 0 1 2.344-.11h.427c.867 0 1.73.038 2.585.102.09-.198.188-.399.278-.594a87.33 87.33 0 0 1 1.05-2.124V53.1c.061-.124.122-.244.185-.362.288-.57.588-1.135.895-1.695.141-.268.28-.52.424-.771.03-.063.063-.123.1-.182.146-.268.294-.536.445-.804a91.346 91.346 0 0 1 2.347-3.893l.207-.327c.127-.198.244-.39.385-.589.336-.517.682-1.036 1.03-1.545.245-.364.488-.726.751-1.071.634-.893 1.284-1.785 1.95-2.678a68.288 68.288 0 0 1 2.373-3l1.04-1.247c.052-.059.096-.113.144-.166.125-.147.244-.295.378-.437a96.135 96.135 0 0 1 11.038-10.858c.13-.113.261-.22.39-.327a97.841 97.841 0 0 1 12.698-8.933c.258-.163.521-.316.787-.466A99.211 99.211 0 0 1 96.22 8.51a102.567 102.567 0 0 1 9.872-3.7c2.098-.665 4.212-1.26 6.34-1.787A103.347 103.347 0 0 1 131.497.17c1.949-.11 3.92-.165 5.913-.169a103.699 103.699 0 0 1 28.51 3.963c.096.16.228.29.383.38a.95.95 0 0 0 .501.126h.819c.356.107.709.215 1.065.327a99.968 99.968 0 0 1 5.875 2.06l.487.192a100.346 100.346 0 0 1 13.868 6.695 98.961 98.961 0 0 1 13.297 9.243 44.417 44.417 0 0 1 2.051-1.36 38.504 38.504 0 0 1 8.5-3.982 35.404 35.404 0 0 1 19.064-.82c8.102 1.889 15.437 6.575 21.361 13.24a54.437 54.437 0 0 1 6.406 8.939 61.48 61.48 0 0 1 4.476 9.635c.041.114.083.222.119.334a66.28 66.28 0 0 1 2.51 8.93c.029.156.063.309.093.464.589 2.944.99 5.93 1.199 8.936 0 .107 0 .217.019.33.102 1.554.154 3.125.156 4.712 0 1.42-.044 2.828-.124 4.226 0 .152-.02.31-.032.468-.022.405-.054.804-.085 1.21a48.326 48.326 0 0 1 5.209 5.402 50.19 50.19 0 0 1 2.062 2.65 57.257 57.257 0 0 1 5.312 8.937c4.12 8.547 6.489 18.603 6.489 29.365Z" opacity=".1"/><path fill="#40DA59" d="M259.465 188.984c0 1.829-5.733 3.543-15.738 5.016H54.482c-8.42.02-16.694-2.411-23.982-7.045l-.112-.07c2.875-1.151 8.066-2.225 15.13-3.195l.316-.042a304.85 304.85 0 0 1 10.578-1.213c.098 0 .197-.017.295-.03 3.07-.3 6.336-.581 9.798-.843.11 0 .217-.022.327-.027 1.335-.106 2.698-.205 4.088-.3l.536-.038c10.125-.69 21.633-1.242 34.114-1.606h.015c1.748-.054 3.514-.101 5.3-.142 1.985-.052 3.994-.098 6.028-.137 1.552-.037 3.124-.064 4.701-.091h.036c7.113-.118 14.462-.177 21.977-.177 18.582 0 36.146.373 51.709 1.042h.044c2.393.102 4.742.214 7.032.329l1.95.102c2.584.136 5.102.281 7.553.437 28.827 1.802 47.55 4.729 47.55 8.03Z" opacity=".1"/><g opacity=".2"><path fill="#3F3D56" d="M165.764 177.815a5.624 5.624 0 0 1-.09.86 150.928 150.928 0 0 0-5.117-.803v-.231a4.855 4.855 0 0 1 .609-2.271c.502-.873 1.265-1.419 2.105-1.389.841.029 1.57.626 2.02 1.529.341.708.505 1.504.473 2.305Z"/><path fill="#3F3D56" d="M165.904 173.239c.06-2.071-1.059-3.79-2.498-3.84-1.439-.05-2.654 1.588-2.714 3.659-.059 2.071 1.059 3.791 2.498 3.841 1.44.05 2.655-1.589 2.714-3.66Z"/><path fill="#3F3D56" d="M166.037 168.655c.06-2.071-1.059-3.79-2.498-3.84-1.439-.05-2.654 1.588-2.714 3.659-.059 2.071 1.059 3.79 2.498 3.84 1.44.05 2.655-1.588 2.714-3.659Z"/><path fill="#3F3D56" d="M166.168 164.07c.059-2.071-1.059-3.79-2.499-3.84-1.439-.05-2.654 1.588-2.713 3.659-.06 2.071 1.059 3.791 2.498 3.841 1.439.05 2.654-1.589 2.714-3.66Z"/><path fill="#3F3D56" d="M166.298 159.486c.06-2.071-1.059-3.79-2.498-3.84-1.439-.05-2.654 1.588-2.714 3.659-.059 2.071 1.059 3.79 2.498 3.84 1.44.05 2.655-1.588 2.714-3.659Z"/><path fill="#40DA59" d="M154.823 127.676a13.707 13.707 0 0 1-.926-1.607l6.887-.999-7.413-.195a14.958 14.958 0 0 1-.983-5.45c.013-1.871.373-3.72 1.059-5.433l9.776 6.012-8.955-7.723a13.277 13.277 0 0 1 3.51-4.065 11.935 11.935 0 0 1 4.695-2.185 11.4 11.4 0 0 1 5.099.058 12.005 12.005 0 0 1 4.654 2.292 13.356 13.356 0 0 1 3.432 4.144 14.661 14.661 0 0 1 1.64 5.306 15.025 15.025 0 0 1-.425 5.584 14.188 14.188 0 0 1-2.42 4.933c.534.794.988 1.65 1.353 2.552l-9.038 4.766 9.584-3.167c.603 2.188.7 4.507.283 6.747-.418 2.241-1.338 4.331-2.676 6.082 1.391 2.075 2.223 4.538 2.401 7.107a14.898 14.898 0 0 1-1.397 7.425c-1.09 2.281-2.743 4.18-4.769 5.478-2.026 1.298-4.344 1.943-6.688 1.862-2.343-.081-4.619-.886-6.567-2.321-1.947-1.436-3.488-3.445-4.445-5.798a14.963 14.963 0 0 1-.969-7.506c.325-2.552 1.296-4.953 2.804-6.927-1.663-2.479-2.518-5.501-2.43-8.579.088-3.078 1.116-6.034 2.917-8.393h.007Z"/><path fill="#000" d="M176.883 136.936c-.085 3.08-1.116 6.037-2.924 8.392 1.391 2.075 2.223 4.538 2.401 7.107a14.898 14.898 0 0 1-1.397 7.425c-1.09 2.281-2.743 4.18-4.769 5.478-2.026 1.298-4.344 1.943-6.688 1.862-2.343-.081-4.619-.886-6.567-2.321-1.947-1.436-3.488-3.445-4.445-5.798a14.963 14.963 0 0 1-.969-7.506c.325-2.552 1.296-4.953 2.804-6.927-1.601-2.391 22.598-9.252 22.554-7.712Z" opacity=".1"/></g><g opacity=".2"><path fill="#3F3D56" d="M128.726 177.815a5.624 5.624 0 0 1-.09.86 150.928 150.928 0 0 0-5.117-.803v-.231a4.855 4.855 0 0 1 .609-2.271c.502-.873 1.265-1.419 2.106-1.389.84.029 1.569.626 2.02 1.529.34.708.504 1.504.472 2.305Z"/><path fill="#3F3D56" d="M128.864 173.24c.059-2.071-1.059-3.79-2.499-3.84-1.439-.05-2.654 1.588-2.713 3.659-.06 2.071 1.059 3.791 2.498 3.841 1.439.05 2.654-1.589 2.714-3.66Z"/><path fill="#3F3D56" d="M128.997 168.656c.059-2.071-1.059-3.79-2.499-3.84-1.439-.05-2.654 1.588-2.713 3.659-.06 2.071 1.058 3.79 2.498 3.84 1.439.05 2.654-1.588 2.714-3.659Z"/><path fill="#3F3D56" d="M129.127 164.071c.06-2.071-1.059-3.79-2.498-3.84-1.439-.05-2.654 1.588-2.714 3.659-.059 2.071 1.059 3.791 2.498 3.841 1.439.05 2.654-1.589 2.714-3.66Z"/><path fill="#3F3D56" d="M129.258 159.487c.059-2.071-1.059-3.79-2.499-3.84-1.439-.05-2.654 1.588-2.713 3.659-.06 2.071 1.058 3.79 2.498 3.84 1.439.05 2.654-1.588 2.714-3.659Z"/><path fill="#40DA59" d="M117.785 127.676a13.56 13.56 0 0 1-.925-1.607l6.886-.999-7.413-.195a14.958 14.958 0 0 1-.983-5.45c.013-1.871.373-3.72 1.059-5.433l9.776 6.012-8.955-7.723a13.277 13.277 0 0 1 3.51-4.065 11.932 11.932 0 0 1 4.696-2.185 11.396 11.396 0 0 1 5.098.058 12.005 12.005 0 0 1 4.654 2.292 13.356 13.356 0 0 1 3.432 4.144 14.661 14.661 0 0 1 1.64 5.306c.21 1.874.065 3.775-.425 5.584a14.204 14.204 0 0 1-2.419 4.933c.533.794.987 1.65 1.352 2.552l-9.038 4.766 9.584-3.167c.603 2.188.701 4.507.283 6.747-.418 2.241-1.338 4.331-2.676 6.082 1.391 2.075 2.223 4.538 2.401 7.107a14.898 14.898 0 0 1-1.397 7.425c-1.09 2.281-2.743 4.18-4.769 5.478-2.026 1.298-4.343 1.943-6.687 1.862-2.344-.081-4.62-.886-6.568-2.321-1.947-1.436-3.488-3.445-4.445-5.798a14.963 14.963 0 0 1-.969-7.506c.325-2.552 1.296-4.953 2.804-6.927-1.662-2.479-2.518-5.501-2.43-8.579.089-3.078 1.116-6.034 2.917-8.393h.007Z"/><path fill="#000" d="M139.845 136.936c-.085 3.08-1.116 6.037-2.924 8.392 1.391 2.075 2.223 4.538 2.401 7.107a14.898 14.898 0 0 1-1.397 7.425c-1.09 2.281-2.743 4.18-4.769 5.478-2.026 1.298-4.343 1.943-6.687 1.862-2.344-.081-4.62-.886-6.568-2.321-1.947-1.436-3.488-3.445-4.445-5.798a14.963 14.963 0 0 1-.969-7.506c.325-2.552 1.296-4.953 2.804-6.927-1.601-2.391 22.598-9.252 22.554-7.712Z" opacity=".1"/></g><g opacity=".2"><path fill="#3F3D56" d="M229.898 180.745a10.839 10.839 0 0 1-.178 1.628 260.105 260.105 0 0 0-9.866-1.537v-.442a9.336 9.336 0 0 1 1.175-4.373c.974-1.679 2.436-2.731 4.052-2.678 1.615.054 3.021 1.208 3.899 2.946a9.431 9.431 0 0 1 .918 4.456Z"/><path fill="#3F3D56" d="M230.163 171.929c.115-3.988-2.039-7.299-4.812-7.396-2.772-.096-5.112 3.059-5.227 7.047-.114 3.988 2.04 7.299 4.812 7.396 2.772.096 5.113-3.059 5.227-7.047Z"/><path fill="#3F3D56" d="M230.417 163.103c.114-3.989-2.04-7.3-4.812-7.396-2.772-.096-5.113 3.059-5.227 7.047-.115 3.988 2.039 7.299 4.811 7.395 2.773.097 5.113-3.058 5.228-7.046Z"/><path fill="#3F3D56" d="M230.672 154.276c.115-3.988-2.039-7.299-4.812-7.395-2.772-.096-5.112 3.059-5.227 7.047-.114 3.988 2.04 7.299 4.812 7.395 2.772.097 5.113-3.058 5.227-7.047Z"/><path fill="#3F3D56" d="M230.64 145.048c.109-3.99-2.051-7.299-4.825-7.39-2.774-.091-5.11 3.069-5.219 7.059-.109 3.99 2.051 7.299 4.825 7.39 2.773.092 5.11-3.069 5.219-7.059Z"/><path fill="#40DA59" d="M208.833 84.22a26.913 26.913 0 0 1-1.781-3.087l13.255-1.923-14.267-.377a28.764 28.764 0 0 1-1.894-10.492 28.722 28.722 0 0 1 2.036-10.46l18.823 11.571-17.237-14.867c1.743-3.084 4.045-5.74 6.763-7.803 2.718-2.063 5.794-3.49 9.035-4.19 3.241-.699 6.579-.657 9.805.123s6.272 2.281 8.947 4.412c2.674 2.13 4.921 4.842 6.6 7.969a28.211 28.211 0 0 1 3.159 10.202 28.948 28.948 0 0 1-.809 10.74c-.938 3.48-2.518 6.711-4.642 9.492a27.137 27.137 0 0 1 2.605 4.913l-17.4 9.183 18.448-6.106a28.964 28.964 0 0 1 .551 12.977c-.801 4.309-2.568 8.33-5.139 11.699 2.678 3.994 4.279 8.736 4.62 13.683.342 4.947-.59 9.9-2.689 14.292-2.1 4.392-5.281 8.046-9.181 10.545-3.9 2.499-8.362 3.741-12.874 3.585-4.512-.157-8.893-1.705-12.642-4.469-3.749-2.764-6.715-6.631-8.558-11.16-1.844-4.529-2.49-9.536-1.866-14.45.625-4.913 2.495-9.534 5.396-13.335-3.198-4.773-4.845-10.588-4.675-16.513.17-5.924 2.146-11.614 5.611-16.156v.002Z"/><path fill="#000" d="M251.305 102.044c-.16 5.925-2.135 11.619-5.605 16.158 2.678 3.994 4.28 8.735 4.621 13.682.342 4.947-.59 9.9-2.69 14.292-2.099 4.392-5.28 8.047-9.181 10.546-3.9 2.498-8.361 3.74-12.873 3.584-4.512-.156-8.893-1.705-12.643-4.469-3.749-2.763-6.714-6.631-8.558-11.16-1.843-4.528-2.489-9.536-1.865-14.449.624-4.914 2.494-9.535 5.396-13.336-3.104-4.608 43.483-17.813 43.398-14.848Z" opacity=".1"/></g><path fill="#F1C0C0" d="m38.456 181.216 2.556-.008h3.604l4.557-81.347L94.298 17.11l-1.962-2.314v-5.86L43.535 97.944l-5.078 83.272Z"/><path fill="#000" d="M41.285 181.208h3.331l4.557-81.347L94.298 17.11l-1.962-2.314L45.791 98.62l-4.506 82.587Z" opacity=".1"/><path fill="#F1C0C0" d="m30.924 181.894 116.926 9.833.099.008 113.159-7.648.085-.005v-5.252l-124.686-2.514-104.026-.11h-.76l-.083.589-.714 5.099Z"/><path fill="#000" d="m30.924 181.894 116.926 9.833.099.008 113.159-7.648.085-.102v-5.045h-.1l-113.243 4.156-115.369-6.89h-.017l-.204.147-.622.442-.714 5.099Z" opacity=".1"/><path fill="#000" d="m30.924 181.893 116.926 9.833v-8.63l-115.59-6.743-.622.442-.714 5.098Z" opacity=".1"/><path fill="#F1C0C0" d="m92.322 14.685 51.548 60.803-1.593 106.952 4.379.581.073.011h4.378l.524-102.952 96.525 35.433 1.628 63.09 3.524.433 1.194.148-2.764-68.046-100.904-38.93-55.327-63.21h-3.185v5.687Z"/><path fill="#000" d="m151.234 78.112.397 1.968 96.525 35.433 1.628 63.089 3.524.434-2.764-64.835-99.31-36.09ZM92.322 14.685l51.548 60.803-1.593 106.952 4.379.581 1.194-111.033-55.528-62.99v5.687Z" opacity=".1"/><path fill="#F1C0C0" d="m151.422 121.035 35.403 7.661.012.003 62.007 13.423 2.838-1.25-.009-.22-.186-4.351-100.029-22.213-.036 6.947Z"/><path fill="#000" d="m186.837 128.699 62.007 13.424 2.838-1.251-.009-.219-64.836-11.954Z" opacity=".1"/><path fill="#F1C0C0" d="m189.208 93.874.957 57.931.495 29.722 4.359-.161 2.744-.102-.853-86.552-1.891-.691-.414-.147h-5.397Z"/><path fill="#000" d="M189.247 93.86v.014l.918 57.932.495 29.721 4.359-.161V93.86h-5.772Z" opacity=".1"/><path fill="#3F3D56" d="M120.924 108.668c.256.153.5.328.731.523.273.262.518.558.731.881 1.045 1.486 2.01 3.213 1.908 5.088.002.272-.045.543-.138.796a2.103 2.103 0 0 1-.405.676c-.432.405-1.051.423-1.616.423-.614 0-1.26 0-1.791-.348-.531-.348-.975-1.025-1.603-1.009a.754.754 0 0 1-.268 0c-.217-.078-.261-.391-.402-.589-.244-.357-.758-.268-1.141-.113-.382.155-.806.388-1.184.209a1.294 1.294 0 0 1-.514-.565c-.904-1.607-1.097-3.537-1.267-5.404-.105-1.135-.904-5.007 1.301-4.126.975.385 1.886 1.156 2.773 1.722l2.885 1.836Z"/><path fill="#3F3D56" d="M118.746 109.052c.196.155.435.234.678.224.242-.011.474-.111.659-.283.363-.36.594-.853.651-1.387.244-.083.368.268.524.482.273.364.828.359 1.077.747.173.268.134.64.256.942.158.391.55.595.818.911.253.345.436.746.536 1.175l.4 1.318a7.1 7.1 0 0 1 .366 1.706c.025.292-.003.586-.083.866-.079.28-.209.54-.38.765-.536.634-1.416.701-2.193.682a2.574 2.574 0 0 1-.77-.099c-.69-.235-1.131-.999-1.314-1.767-.183-.769-.163-1.575-.27-2.362a10.009 10.009 0 0 0-.609-2.244c-.215-.557-.805-1.387-.795-1.979.176 0 .302.177.449.303Z"/><path fill="#BE6F72" d="M119.62 106.339a4.807 4.807 0 0 1-.197-1.176c0-.803.334-1.558.67-2.276l-2.785.415c-.336.051-.712.126-.902.434a1.161 1.161 0 0 0 0 .988c.14.306.251.626.332.956.006.289.036.577.09.86.087.208.208.396.358.554.797.969 1.394 2.113 1.988 3.246-.017-.033 1.679-1.476 1.611-1.947-.039-.268-.529-.589-.685-.846a4.578 4.578 0 0 1-.48-1.208Z"/><path fill="#F1C0C0" d="M143.5 95.876v2.638l-41.1 8.81-2.132 1.419h-7.356v-1.486l40.381-10.722 10.207-.659Z"/><path fill="#000" d="m143.5 98.514-41.1 8.81-2.132 1.419h-7.356l40.68-9.567 9.908-.662Z" opacity=".1"/><path fill="#40DA59" d="M110.502 170.754a3.147 3.147 0 0 0-1.793-1.195 2.93 2.93 0 0 0-2.081.29c-.138.071-.26.175-.356.305-.244.375-.088.892-.066 1.355.056 1.13-.762 2.049-1.498 2.839-.395.423-.797.875-.975 1.451-.178.576-.046 1.307.431 1.607.209.114.435.184.668.203a6.548 6.548 0 0 0 2.364.072c.777-.163 1.54-.648 1.876-1.435a1.55 1.55 0 0 1 .314-.57c.429-.372 1.087.064 1.574-.201.402-.22.419-.565.424-1.02.015-1.259-.156-2.684-.882-3.701Zm5.848-.048c.3.867.341 1.813.38 2.739.022.536.037 1.109-.226 1.561-.263.453-.778.691-1.27.804-1.016.23-2.193.013-2.848-.873-.502-.678-.607-1.607-.514-2.485.078-.721.243-1.564-.227-2.076-.122-.136-.28-.233-.392-.38-.244-.326-.205-.819-.073-1.221a5.7 5.7 0 0 0 .382-1.208c.02-.198 3.299.14 3.602.303.411.222.348.594.472 1.044.173.627.505 1.192.714 1.792Z"/><path fill="#3F3D56" d="M116.952 132.236c.643.458.892 1.358.992 2.193.275 2.29-.207 4.603-.244 6.914-.034 3.238.819 6.534.09 9.67-.436 1.874-.065 4.017-.475 5.91-.122.562-.346 1.092-.463 1.655-.243 1.218.012 2.493.356 3.684.11.322.179.657.207.999a3.861 3.861 0 0 1-.356 1.51l-1.462 3.8c-.163.426-.806.496-1.218.552-.775.102-1.64.174-2.256-.354-.617-.527-.766-1.411-.861-2.236a37.67 37.67 0 0 1-.243-4.774 4.3 4.3 0 0 0-.1-1.24c-.134-.458-.429-.854-.509-1.339-.103-.626.187-1.242.294-1.874a6.17 6.17 0 0 0-.024-1.738 75.884 75.884 0 0 0-.329-2.566c-.175-1.191.076-2.367.244-3.561.158-1.122-.044-2.265-.244-3.379a10.16 10.16 0 0 1-.305 2.677c-.129.426-.314.833-.426 1.267-.499 1.947.565 3.99.414 6.006-.07.943-.407 1.875-.312 2.804.066.68.354 1.304.551 1.952.197.648.3 1.39 0 1.995-.792 1.644-.2 3.88.509 5.567.144.299.27.609.376.927.209.76.034 1.577.09 2.37a1.255 1.255 0 0 1-.611-.044 1.336 1.336 0 0 1-.532-.334c-.107-.123-.195-.268-.3-.396a2.94 2.94 0 0 0-1.018-.699 1.245 1.245 0 0 0-.731-.185 1.452 1.452 0 0 0-.695.474 6.826 6.826 0 0 1-.765.64.858.858 0 0 1-.39.19.316.316 0 0 1-.208-.037.357.357 0 0 1-.15-.164.535.535 0 0 1-.027-.139 23.59 23.59 0 0 1-.144-2.437c0-1.4-1.525-2.364-1.717-3.749-.154-1.116.131-2.254.036-3.379-.046-.578-.192-1.146-.183-1.725 0-.374.078-.741.105-1.114a8.988 8.988 0 0 0-.017-1.239l-.075-1.294c-.074-1.277-.154-2.581-.612-3.749a13.77 13.77 0 0 1-.95-4.306c-.049-.937-.017-1.874-.115-2.814-.088-.849-.283-1.692-.226-2.544.046-.659.243-1.296.289-1.955.096-1.266-.343-2.498-.687-3.711-.343-1.213-.597-2.558-.146-3.728.065-.192.172-.363.312-.498.173-.126.37-.206.575-.235a40.664 40.664 0 0 1 12.725-.892 3.955 3.955 0 0 1 1.961.672Z"/><path fill="#BE6F72" d="M103.119 103.795c2.156 0 3.904-1.921 3.904-4.29 0-2.369-1.748-4.29-3.904-4.29-2.156 0-3.904 1.921-3.904 4.29 0 2.369 1.748 4.29 3.904 4.29Z"/><path fill="#BE6F72" d="M102.364 104.863c.056.246.056.502 0 .747a1.75 1.75 0 0 1-.256.472 11.835 11.835 0 0 1-1.25 1.494 2.38 2.38 0 0 0 1.167 1.267 6.336 6.336 0 0 0 1.611.506c.276.08.564.101.847.064.262-.072.51-.196.731-.364l2.169-1.427c.327-.195.63-.436.902-.715a2.57 2.57 0 0 0 .628-1.677.487.487 0 0 0-.078-.316.489.489 0 0 0-.297-.136c-.763-.185-1.364-.865-1.706-1.636a9.415 9.415 0 0 1-.592-2.483l-2.312 1.339c-.344.201-.685.402-1.041.576-.226.112-.684.206-.845.434-.307.42.241 1.349.322 1.855Z"/><path fill="#3F3D56" d="M100.872 106.797a2.82 2.82 0 0 0-.748 1.111c-.15.535 0 1.1.137 1.631a52.866 52.866 0 0 1 1.462 6.906c.204 1.606.28 3.237.38 4.863.205 3.315.502 8.601.899 11.895 1.462.072 2.887-.397 4.337-.568 2.71-.316 5.5.407 8.154-.268-.644-2.793-1.287-7.562-1.93-10.352a21.51 21.51 0 0 1-.59-3.361c-.056-.817-.022-1.636-.012-2.458.022-1.607-.059-3.214-.139-4.82-.093-1.875-.185-3.749-.59-5.584a1.083 1.083 0 0 0-.282-.613c-.244-.195-.561-.126-.851-.083a3.439 3.439 0 0 1-2.529-.659c-.322-.241-.753-.535-1.053-.267a1.196 1.196 0 0 0-.243.57 2.898 2.898 0 0 1-.601 1.007 2.57 2.57 0 0 1-.925.645 7.022 7.022 0 0 1-2.159.488.975.975 0 0 1-.67-.083c-.346-.233-.37-1.072-.806-1.128-.383-.048-.982.857-1.241 1.128Z"/><path fill="#40DA59" d="M106.638 113.336c-.9-.945-1.294-2.316-1.95-3.481a7.514 7.514 0 0 0-1.684-2.035 5.174 5.174 0 0 1-.916-.855c-.231-.313-.407-.731-.758-.851a.835.835 0 0 0-.438.013.905.905 0 0 0-.383.236 8.654 8.654 0 0 0-.609.712c-1.033 1.176-2.849 1.339-3.667 2.7a2.305 2.305 0 0 0-.436 1.004c-.236 1.98.23 3.983 1.3 5.596.208.374.527.658.902.804-.05.499.01 1.004.176 1.472a41.962 41.962 0 0 0 1.66 4.968 13.1 13.1 0 0 0-.327 1.925c-.17 1.636-.012 3.297-.173 4.935-.132 1.339-.488 2.643-.5 3.985 0 .214.017.469.185.578.09.051.19.074.29.067l2.998.099c1.739.057 3.496.113 5.209-.241.228-.037.45-.113.656-.227.58-.356.772-1.16.865-1.875.121-.927.169-1.864.143-2.801.364 1.262.795 2.566 1.891 3.112.58.289 1.243.268 1.879.249a32.355 32.355 0 0 0 4.091-.463.501.501 0 0 0 .456-.179.619.619 0 0 0 .141-.509l.015-1.463c.029-2.969-.641-5.808-.902-8.764-.083-.932-.075-1.874-.282-2.788-.086-.383-.21-.757-.285-1.143a8.952 8.952 0 0 1-.122-1.143l-.19-2.946c-.091-1.363-.22-2.678-.315-4.038a21.384 21.384 0 0 0-.521-3.926c-.212-.803-.653-1.714-1.416-1.813-.407-.051-.802.145-1.189.281a4.392 4.392 0 0 1-2.924-.013 3.855 3.855 0 0 0-.911-.268.835.835 0 0 0-.464.066.924.924 0 0 0-.37.314c-.094.21-.139.442-.129.675-.114 2.675-.326 5.431-.996 8.031Z"/><path fill="#3F3D56" d="M102.717 113.417c-1.123-1.302-2.276-2.627-3.723-3.455-.57-.327-1.219-.573-1.85-.45-.631.123-1.218.726-1.189 1.43.02.437.26.822.336 1.251.088.482-.039.996.098 1.462.11.307.276.586.487.822l1.725 2.247c.731.937 1.462 1.887 2.403 2.536.94.648 2.159.95 3.192.49a4.098 4.098 0 0 0 1.75-1.765c.428-.75.731-1.569 1.133-2.343a11.452 11.452 0 0 1 2.436-3.248c-.507-.145-1.143-.349-1.462-.804a2.711 2.711 0 0 1-.231-.46l-.395-.938a.907.907 0 0 0-.394.068.965.965 0 0 0-.337.235 6.558 6.558 0 0 1-.543.608c-.344.284-.809.361-1.121.685-.121.14-.23.29-.327.45a2.83 2.83 0 0 1-.878.826 2.563 2.563 0 0 1-1.11.353Z"/><path fill="#BE6F72" d="M109.605 107.817c.846-1.695.807-3.727 1.048-5.642.026-.507.188-.994.466-1.401.487-.605 1.347-.613 2.083-.535.217.027.487.139.475.377a.505.505 0 0 1-.109.228 6.752 6.752 0 0 0-1.204 3.513c.382.292.974-.308 1.342 0 .244.225.132.67-.014.991a86.42 86.42 0 0 1-1.05 2.217 7.185 7.185 0 0 1-1.114 1.765c-.309.327-.673.584-.987.905-.731.753-1.172 1.816-1.927 2.549a.386.386 0 0 1-.244.137.395.395 0 0 1-.256-.126 4.002 4.002 0 0 1-.921-1.224c-.287-.583-.244-.755.21-1.167.848-.737 1.674-1.527 2.202-2.587Z"/><path fill="#40DA59" d="M101.304 112.265c.146.099.326.211.487.128a.524.524 0 0 0 .163-.174 6.45 6.45 0 0 0 .692-1.323.538.538 0 0 0 .051-.214c0-.171-.139-.297-.268-.396a9.57 9.57 0 0 0-2.215-1.157c-.643-.268-1.315-.501-1.998-.434a1.776 1.776 0 0 0-.735.223 1.942 1.942 0 0 0-.598.522c-.487.688.33.897.841 1.146 1.184.592 2.466.934 3.58 1.679Z"/><path fill="#000" d="M100.536 116.817a.43.43 0 0 0 .102.338c.071-.381-.022-.782.052-1.165.107-.576.616-1.01.66-1.588-.933-.201-.807 1.794-.814 2.415Z" opacity=".1"/><path fill="#000" d="M143.5 95.876v2.638l-9.908.662-.299-2.64 10.207-.66Z" opacity=".2"/><path fill="#3F3D56" d="M99.605 100.142c.619-.554.26-1.716.68-2.46.244-.408.656-.622 1.06-.804a4.49 4.49 0 0 1 1.547-.471c.269-.029.54.01.793.112.253.103.482.267.669.48.159.198.266.439.415.645.184.24.424.422.694.524.27.103.561.124.841.06.324-.08.66-.351.638-.715a1.034 1.034 0 0 0-.292-.573l-.697-.85c-.792-.963-1.672-1.986-2.834-2.227-.809-.169-1.638.07-2.417.356-.315.115-.668.287-.756.637-.058.241.03.504-.022.747-.1.485-.665.648-.928 1.056-.263.406-.183.888-.258 1.338-.076.45-.295.89-.322 1.355-.017.281.112.804.4.905.287.102.611-.45.79-.115Z"/><path fill="#FED253" d="M106.706 97.127a8.46 8.46 0 0 0-1.297-3.256 5.305 5.305 0 0 0-2.307-2.013 3.036 3.036 0 0 0-2.873.248 4.54 4.54 0 0 0-1.435 1.99c-.631 1.494-.865 3.32-.132 4.756.293-.391.795-.214 1.238-.356.556-.174 1.026-.581 1.555-.836 1.596-.774 3.545-.147 5.251-.533Z"/><path fill="#000" d="M99.035 97.044c-.056-.482-.093-1.042.22-1.384a.162.162 0 0 1 .057-.05.147.147 0 0 1 .072-.015c.021.008.041.02.058.037a.188.188 0 0 1 .041.06c.18.312.334.642.459.985a.852.852 0 0 0-.546.043.95.95 0 0 0-.43.372m5.764-1.408-.088-.956a.482.482 0 0 1 .017-.236.278.278 0 0 1 .159-.129.254.254 0 0 1 .197.022c.12.073.218.181.285.313.203.342.371.708.502 1.09a2.69 2.69 0 0 0-1.187.016m2.295 38.679v2.185l-1.678.123h-8.831v-2.308h10.509Z" opacity=".1"/><path fill="#F1C0C0" d="M106.91 134.483v2.308H96.4L68.482 98.356V96.54h5.853l32.576 37.943Z"/><path fill="#000" d="M106.91 134.483v2.308H96.4L68.482 98.356V96.54h5.853l32.576 37.943Z" opacity=".1"/><path fill="#000" d="M106.91 134.483v2.308H96.4L68.482 98.356V96.54l28.071 37.943h10.358Z" opacity=".1"/><path fill="#40DA59" d="M72.141 173.006a.882.882 0 0 1-.006.328.839.839 0 0 1-.126.297.756.756 0 0 1-.223.218.685.685 0 0 1-.283.102c-.678.252-1.397.501-1.877 1.071-.48.571-.575 1.628 0 2.092.294.194.632.296.975.292 1.104.083 2.254.067 3.255-.448.717-.364 1.392-.985 2.179-.929.407.027.84.236 1.204.032.363-.203.465-.771.468-1.245a10.09 10.09 0 0 0-.402-2.916c-.037-.129-1.587-.228-1.772-.268l-1.879-.268c-.355-.05-1.123-.345-1.403-.018-.28.326-.11 1.272-.11 1.66Zm11.211-6.684c.08.483.21.953.385 1.403.261.729.595 1.503 1.233 1.856.58.319 1.292.204 1.882-.099a1.58 1.58 0 0 0 .626-.522c.19-.364.275-.784.243-1.202 0-1.037-.056-2.108-.487-3.029-.37-.803-1.016-1.494-1.026-2.383l-2.22.471a.607.607 0 0 0-.326.142.637.637 0 0 0-.142.292 8.736 8.736 0 0 0-.168 3.071Zm-26.509-25.439c-.092.862-.053 1.786.356 2.53.41.745 1.272 1.238 2.018.94a.265.265 0 0 0 .105-.056.32.32 0 0 0 .078-.096.412.412 0 0 0-.032-.268 4.316 4.316 0 0 1 .075-2.978c.05-.123.154-.268.269-.219.047.026.086.07.11.123.117.224.176.48.17.739a3.017 3.017 0 0 0-.02.71c.047.23.27.447.466.348a.515.515 0 0 0 .143-.148.563.563 0 0 0 .078-.198c.544-1.727.298-3.615.05-5.422a.3.3 0 0 0-.082-.224.26.26 0 0 0-.097-.062.236.236 0 0 0-.112-.012c-1.15-.125-1.779-.428-2.437.748-.565.99-1.138 2.353-1.138 3.545Z"/><path fill="#3F3D56" d="M70.29 136.489c-.342 1.558-.686 3.135-.707 4.737.006.997.074 1.993.204 2.98l.256 2.319c.088.782.173 1.561.297 2.335.08.399.123.805.13 1.213a7.09 7.09 0 0 1-.174 1.192c-.153.82-.238 1.653-.255 2.49-.027 1.339.124 2.678.219 4.017a49.16 49.16 0 0 1-.085 8.012 3.25 3.25 0 0 0 .4 2.065c.144.193.263.407.353.637.182.613-.244 1.226-.354 1.856-.07.49.04.992.306 1.393a1.69 1.69 0 0 0 1.113.749c1.949.254 3.952.139 5.709 1.119.185-.594-.22-1.269-.034-1.874.116-.375.438-.619.657-.935a2.922 2.922 0 0 0 .42-1.633 6.5 6.5 0 0 0-.361-2.215c-.207-.589-.505-1.17-.487-1.802 0-.311.1-.637-.015-.924a1.434 1.434 0 0 0-.314-.431 5.715 5.715 0 0 1-1.275-3.173 16.052 16.052 0 0 1 .103-3.519c.119-1.108.28-2.279.92-3.144a22.1 22.1 0 0 1 .515-7.832c.063-.236.163-.509.382-.565a.493.493 0 0 1 .257.039.55.55 0 0 1 .211.164c.383.394.566.964.731 1.511.183.591.368 1.223.23 1.829-.06.267-.176.503-.244.76a2.463 2.463 0 0 0 .073 1.572c.095.182.155.383.175.592a1.752 1.752 0 0 1-.146.514 2.575 2.575 0 0 0 .202 1.914c.31.569.694 1.086 1.138 1.535a6.152 6.152 0 0 0 .159 3.095.425.425 0 0 1 .031.298c-.044.101-.156.139-.243.211-.244.22-.093.635.07.921.448.787.942 1.54 1.48 2.255.487.64.443 1.875 1.169 2.105.305.072.62.072.926 0 .716-.121 1.516-.348 1.866-1.044.144-.287.203-.635.427-.849.224-.215.514-.252.638-.509s-.014-.595.027-.892c.041-.297.278-.535.353-.849.18-.723-.587-1.317-.692-2.056-.15-1.071 1.077-1.875 1.026-2.946-.107-2.327-.175-4.665-.285-6.992a55.354 55.354 0 0 1-.058-6.263c.085-1.299.243-2.659-.19-3.867-.624-1.703-2.345-2.659-4.009-2.841-1.664-.182-3.323.252-4.973.536-2.738.463-5.52.527-8.273.19Z"/><path fill="#FBBEBE" d="M75.236 110.894c2.156 0 3.903-1.921 3.903-4.29 0-2.369-1.747-4.29-3.903-4.29-2.156 0-3.904 1.921-3.904 4.29 0 2.369 1.748 4.29 3.904 4.29Z"/><path fill="#FBBEBE" d="M73.647 111.694c-.133.34-.356.627-.64.824a1.547 1.547 0 0 1-.951.282c-.141.643.197 1.291.585 1.797a6.948 6.948 0 0 0 3.011 2.243 6.345 6.345 0 0 0 3.631.261 3.13 3.13 0 0 0 1.309-.6 3.272 3.272 0 0 0 .999-1.901c.112-.739.144-1.489.095-2.236a.622.622 0 0 0-.108-.413.506.506 0 0 0-.34-.123c-.824-.08-1.684-.115-2.408-.559-.724-.445-1.238-1.449-.89-2.274-.056.129-1.479.19-1.666.217a39.28 39.28 0 0 0-1.76.311 2.94 2.94 0 0 0-.826.171c-.353.201-.221.102-.139.466.125.557.307.956.098 1.534Z"/><path fill="#3F3D56" d="M76.617 114.303a5.935 5.935 0 0 1-1.562-.191 2.19 2.19 0 0 1-1.281-.94c-.18-.299-.298-.677-.585-.846-.47-.267-1.006.185-1.382.6a5.14 5.14 0 0 1-1.174 1.039c-.522.303-1.13.41-1.623.766a4.346 4.346 0 0 0-.975 1.157l-3.453 5.168c-1.386 2.078-2.592 4.309-3.828 6.502-1.07 1.898-1.63 4.083-2.436 6.132a.743.743 0 0 0-.076.412c.03.14.183.252.29.172-.363.396-.044 1.071-.129 1.628-.097.39-.3.738-.58.999a4.172 4.172 0 0 1 1.608.083c.545.169 1.06.441 1.52.803.296-.051.269-.627.488-.841.132-.126.327-.11.5-.147.65-.139.908-.999 1.408-1.484.417-.404 1.006-.535 1.447-.915.717-.619.87-1.72 1.246-2.633.319-.774.82-1.448 1.101-2.241.183-.514.27-1.071.531-1.545.417-.766 1.202-1.173 1.95-1.54.472-.233.974-.474 1.484-.436-.027 1.245-.171 2.471.075 3.687.085.428.205.846.307 1.272.466 1.917.575 3.915.597 5.891a14.97 14.97 0 0 1 3.411-.45c.904-.029 1.806.099 2.71.081 1.072-.022 2.132-.249 3.204-.33 1.073-.08 2.193 0 3.141.536a36.023 36.023 0 0 1 .13-5.088l.258-2.662a17.71 17.71 0 0 1 .324-2.297c.141-.611.346-1.2.502-1.808.548-2.142.448-4.429.343-6.66-.053-1.146-.455-2.273-.928-3.293a9.195 9.195 0 0 0-.585-1.093 5.915 5.915 0 0 0-2.213-2.011 5.308 5.308 0 0 0-2.821-.586.945.945 0 0 0-.36.085 1.298 1.298 0 0 0-.461.603 6.332 6.332 0 0 1-2.123 2.421Zm-4.815-6.277c.11-.268.405-.367.585-.581.346-.407.19-1.058.244-1.607.088-.803.694-1.476 1.389-1.762a4.106 4.106 0 0 1 2.193-.153c.352.029.692.153.99.362.126.102.243.233.362.326a.9.9 0 0 0 .726.127.983.983 0 0 0 .6-.467c-.863-1.14-1.818-2.345-3.129-2.696a5.83 5.83 0 0 0-1.367-.142c-.607-.013-1.233-.024-1.793.23-.763.346-1.3 1.141-1.575 1.998-.24.868-.369 1.77-.382 2.678-.05.605-.05 1.215 0 1.821.094.827.374 1.615.814 2.294.06.106.144.192.243.25 1.112.535.01-2.456.1-2.678Z"/><path fill="#FED253" d="M78.764 103.61c-.134-1.261-.953-2.303-1.823-3.141a6.634 6.634 0 0 0-2.448-1.62c-.92-.297-1.977-.233-2.764.37-.633.484-1.035 1.255-1.345 2.032a6.93 6.93 0 0 0-.587 2.945c.06 1.013.51 2.038 1.309 2.55.287-.466.787-.707 1.267-.897a57.955 57.955 0 0 1 6.391-2.239Z"/><path fill="#000" d="M71.374 103.086c.078 0 .129.088.168.16.198.34.368.698.509 1.071-.285.067-.775.142-.916-.134-.076-.139.014-1.111.239-1.097Zm5.553-.606c-.059.062-.127-.064-.127-.155v-1.039a.164.164 0 0 1 .017-.083.124.124 0 0 1 .036-.031.114.114 0 0 1 .044-.012c.198-.024.361.161.488.337.192.287.36.592.5.913l-1.031-.034" opacity=".1"/><path fill="#3F3D56" d="M89.79 119.685c.224-.234.464-.449.716-.645.675-.496 1.492-.691 2.25-1.007.757-.316 1.527-.828 1.822-1.658a4.305 4.305 0 0 0 .142-1.606 1.75 1.75 0 0 0-.108-.662 1.276 1.276 0 0 0-.385-.46c-1.028-.836-2.407-.903-3.684-.817a21.442 21.442 0 0 0-8.14 2.233.718.718 0 0 0-.342.268.83.83 0 0 0-.066.372c-.045.79.048 1.582.275 2.333.337.953 1.029 1.721 1.319 2.693.131.437.175.9.29 1.339.094.454.338.853.684 1.12.963.632 1.872-.217 2.54-.876l2.687-2.627Z"/><path fill="#40DA59" d="m77.185 123.394-1.235-2.962c-.181-.41-.338-.833-.468-1.266-.141-.517-.21-1.053-.341-1.572-.434-1.73-1.528-3.171-2.062-4.866a.95.95 0 0 0-.2-.409.609.609 0 0 0-.543-.108c-.746.142-1.328.766-2.01 1.12-.317.16-.658.268-.975.452a1.253 1.253 0 0 0-.411.349c-.113.148-.195.32-.242.506-.075.409.11.803.266 1.202.662 1.644.814 3.481.843 5.281.022 1.21-.034 2.509-.685 3.481-1.25 1.874-.45 4.627.017 6.895.056.268.122.557.16.841.042.355.06.713.057 1.071 0 1.202-.061 2.442-.52 3.532.453.265.952.42 1.463.455 1.415.199 2.835.338 4.262.418.447.046.897.021 1.337-.075a2.436 2.436 0 0 0 1.31-.973 2.857 2.857 0 0 0 .491-1.651c.078.742.222 1.548.712 2.062.49.514 1.204.592 1.869.632 1.877.109 3.76.051 5.629-.174a.896.896 0 0 0 .345-.089c.361-.198.38-.744.351-1.183a55.25 55.25 0 0 0-.2-2.461 11.04 11.04 0 0 1-.116-1.575c.037-.542.118-1.08.243-1.606.327-1.671.585-3.377.475-5.088a9.441 9.441 0 0 1-.046-1.256c.064-.945.517-1.845.431-2.785-.243-2.764-.44-5.599-1.142-8.267-.127-.476-.288-.988-.666-1.261-.487-.359-1.172-.171-1.73-.399a4.29 4.29 0 0 1-.743-.484 3.19 3.19 0 0 0-1.679-.568c-.448-.019-.948.091-1.218.487a2.071 2.071 0 0 0-.244.731c-.353 1.634-.767 3.248-1.182 4.863l-.397 1.548-1.065 4.156c-.104.442-.034.578-.14.996Z"/><path fill="#F1C0C0" d="m83.416 107.18 23.57 27.22v2.308h-10.51l-17.712-25.404"/><path fill="#000" d="m83.416 107.18 23.57 27.22v2.308h-10.51l-17.712-25.404" opacity=".1"/><path fill="#000" d="m79.14 110.945.075.029L96.627 134.4h10.359v2.308h-10.51l-17.712-25.404.375-.359Z" opacity=".1"/><path fill="#40DA59" d="M81.851 111.518c-.852.41-1.8.935-2.056 1.92a1.21 1.21 0 0 0-.032.536c.062.21.181.394.34.528a.94.94 0 0 0 .554.224c.402.011.8-.07 1.172-.236l5.032-1.826c.137-.048.293-.12.327-.268a.497.497 0 0 0-.049-.267c-.156-.418-.31-1.272-.636-1.564-.268-.236-.8-.153-1.123-.148-1.248.011-2.42.565-3.529 1.101Z"/><path fill="#3F3D56" d="M86.337 112.881a7.415 7.415 0 0 1 2.498.426c.81.289 1.529.828 2.069 1.553.157.202.269.443.326.701.049.268.843.429.668.611.534-.094.407.182.948.177.54-.006 1.126-.158 1.45-.632a2.24 2.24 0 0 0 .285-1.31 2.42 2.42 0 0 0-.161-.926c-.244-.563-.804-.865-1.32-1.125l-4.353-2.188a2.734 2.734 0 0 0-.804-.313 2.716 2.716 0 0 0-.709.019l-1.971.249c.43.306.782.731 1.018 1.232s.35 1.061.33 1.625"/></g><defs><clipPath id="a"><path fill="#fff" d="M0 0h287v194H0z"/></clipPath></defs></svg>