<svg xmlns="http://www.w3.org/2000/svg" width="265" height="208" fill="none"><g clip-path="url(#a)"><path fill="#E6E6E6" d="M240.168.136H.602v153.547h239.566V.136Z"/><path fill="#fff" d="M233.317 19.395H7.453v125.204h225.864V19.395Z"/><path fill="#40DA59" d="M240.065 0H.5v10.185h239.565V0Z"/><path fill="#fff" d="M8.063 7.095a1.887 1.887 0 1 0-.001-3.774 1.887 1.887 0 0 0 .001 3.774ZM15.223 7.095a1.887 1.887 0 1 0-.001-3.774 1.887 1.887 0 0 0 .001 3.774ZM22.383 7.095a1.887 1.887 0 1 0-.001-3.774 1.887 1.887 0 0 0 .001 3.774Z"/><path fill="#E6E6E6" d="M86.012 32.386H27.975v99.222h58.037V32.386Z"/><path fill="#40DA59" d="M144.394 32.386H96.03v27.312h48.364V32.385Z"/><path fill="#E6E6E6" d="M144.394 67.303H96.03V96.69h48.364V67.304ZM144.394 104.296H96.03v27.312h48.364v-27.312ZM212.794 32.386h-58.036v43.24h58.036v-43.24ZM212.794 88.367h-58.036v43.241h58.036v-43.24Z"/><path fill="#2F2E41" d="M190.437 78.733v-9.31c0-3.308 1.313-6.48 3.651-8.82a12.459 12.459 0 0 1 17.627 0 12.477 12.477 0 0 1 3.651 8.82v9.31a1.68 1.68 0 0 1-1.674 1.675h-21.581a1.675 1.675 0 0 1-1.674-1.675Z"/><path fill="#FFB8B8" d="m221.332 199.88-4.396 1.217-6.785-16.391 6.488-1.797 4.693 16.971Z"/><path fill="#2F2E41" d="m213.448 200.71 8.479-2.348 1.477 5.342-13.817 3.827a5.55 5.55 0 0 1 1.931-5.849 5.543 5.543 0 0 1 1.93-.972Z"/><path fill="#FFB8B8" d="M175.498 203.264h-4.562l-2.17-17.608h6.732v17.608Z"/><path fill="#2F2E41" d="M167.678 201.959h8.797v5.544h-14.336c0-.728.143-1.449.421-2.122a5.539 5.539 0 0 1 5.118-3.422Z"/><path fill="#FFB8B8" d="M169.997 104.857a3.736 3.736 0 0 0 2.784 1.509 3.744 3.744 0 0 0 2.943-1.168l12.126 5.458-1.103-6.826-11.346-4.136a3.76 3.76 0 0 0-6.145 2.593 3.771 3.771 0 0 0 .741 2.57Z"/><path fill="#2F2E41" d="M195.192 145.905c-3.81 0-7.754-.568-11.069-2.257a14.293 14.293 0 0 1-7.333-8.775c-1.727-5.473.451-10.85 2.557-16.05 1.305-3.223 2.537-6.266 2.857-9.266l.112-1.065c.498-4.784.928-8.916 3.31-10.466 1.235-.803 2.895-.849 5.076-.14l20.481 6.659-.753 38.908-.125.042c-.107.036-7.327 2.41-15.113 2.41Z"/><path fill="#40DA59" d="M190.344 85.773s10.046-2.979 17.859-1.861c0 0-4.465 24.576-2.976 32.768 1.488 8.192-25.859 3.165-20.278-4.655l1.86-9.309s-3.721-3.724-.372-8.192l3.907-8.75Z"/><path fill="#2F2E41" d="m185.402 145.168-12.381-2.323 4.323-33.292c.29-.93 6.987-22.023 10.028-23.164a51.857 51.857 0 0 1 6.759-1.88l.441-.088-2.483 3.727-9.884 23.703 3.197 33.317Z"/><path fill="#2F2E41" d="m178.951 199.184-15.997-2.668 8.977-36.687 13.359-50.171.132.891c.01.066 1.258 6.62 19.776 3.712l.163-.025.045.159 22.381 79.141-18.228 3.04-16.626-57.741-13.982 60.349Z"/><path fill="#2F2E41" d="m201.124 151.398.01-.282c.011-.312 1.112-31.417.744-43.926-.369-12.552 3.692-23.422 3.733-23.53l.033-.088.09-.026c5.253-1.502 9.811 2.981 9.856 3.027l.064.064-1.496 12.353 6.406 44.923-19.44 7.485Z"/><path fill="#FFB8B8" d="M200.34 80.191c5.047 0 9.139-4.094 9.139-9.145 0-5.051-4.092-9.146-9.139-9.146s-9.139 4.095-9.139 9.146c0 5.05 4.092 9.145 9.139 9.145Z"/><path fill="#2F2E41" d="M187.488 70.168a9.885 9.885 0 0 1 2.891-6.974 9.87 9.87 0 0 1 6.969-2.894h1.86a9.866 9.866 0 0 1 6.969 2.894 9.88 9.88 0 0 1 2.891 6.974v.186h-3.931l-1.341-3.757-.268 3.757h-2.032l-.677-1.896-.135 1.896h-13.196v-.186Z"/><path fill="#2F2E41" d="M199.441 81.455a1.646 1.646 0 0 1-.131-1.753c1.971-3.752 4.731-10.687 1.067-14.963l-.263-.307h10.637v15.981l-9.663 1.707a1.667 1.667 0 0 1-1.647-.665Z"/><path fill="#3F3D56" d="M156.616 15.47a50.202 50.202 0 0 0-54.437-6.756 50.251 50.251 0 0 0-21.073 19.369 50.307 50.307 0 0 0 2.104 54.856 50.241 50.241 0 0 0 22.495 17.694 50.2 50.2 0 0 0 28.499 2.535 50.234 50.234 0 0 0 25.26-13.447l61.622 52.037a4.628 4.628 0 0 0 6.525-.547 4.637 4.637 0 0 0-.547-6.529l-.007-.006-61.622-52.037a50.314 50.314 0 0 0 8.591-35.294 50.296 50.296 0 0 0-17.41-31.875Zm-3.973 62.158a37.639 37.639 0 0 1-18.333 11.9 37.612 37.612 0 0 1-21.85-.299 37.638 37.638 0 0 1-18.001-12.396 37.684 37.684 0 0 1-3.53-41.705 37.653 37.653 0 0 1 15.66-15.25 37.615 37.615 0 0 1 41.561 4.67 37.666 37.666 0 0 1 13.231 25.609 37.705 37.705 0 0 1-1.639 14.605 37.663 37.663 0 0 1-7.099 12.866Z"/><path fill="#000" d="M99.604 82.125a37.692 37.692 0 0 1-6.387-50.637 37.677 37.677 0 0 0-10.825 29.75 37.69 37.69 0 0 0 13.232 25.608 37.63 37.63 0 0 0 27.45 8.745 37.619 37.619 0 0 0 25.588-13.242 37.056 37.056 0 0 0 1.894-2.442 37.622 37.622 0 0 1-50.952 2.218Z" opacity=".3"/><path fill="#FFB8B8" d="M203.274 120.845a3.741 3.741 0 0 0 4.623-3.4l12.811-3.559-5.208-4.544-11.367 4.076a3.76 3.76 0 0 0-3.726 3.332 3.763 3.763 0 0 0 2.867 4.095Z"/><path fill="#2F2E41" d="m208.599 118.962-.78-7.413 10.702-5.909-6.977-8.453 1.138-9.495 2.836-1.216.088.114c1.337 1.72 13.062 16.861 13.062 18.732 0 1.923-2.243 7.568-5.312 9.104-2.96 1.481-14.076 4.36-14.548 4.482l-.209.054Z"/><path fill="#CCC" d="M264.128 208H122.367a.37.37 0 0 1-.372-.372.373.373 0 0 1 .372-.373h141.761a.375.375 0 0 1 .372.373.373.373 0 0 1-.372.372Z"/></g><defs><clipPath id="a"><path fill="#fff" d="M.5 0h264v208H.5z"/></clipPath></defs></svg>