<svg width="244" height="234" viewBox="0 0 244 234" fill="none" xmlns="http://www.w3.org/2000/svg">
<g clip-path="url(#clip0_100_675)">
<path d="M154.901 52.6259H89.1538C87.6555 52.6276 86.2191 53.2132 85.1597 54.2541C84.1003 55.2949 83.5043 56.7061 83.5024 58.1781V201.741L82.7489 201.967L66.62 206.82C65.8556 207.049 65.03 206.97 64.3244 206.602C63.6187 206.233 63.0908 205.605 62.8564 204.854L14.8803 50.8898C14.6468 50.1388 14.7264 49.3275 15.1015 48.6341C15.4767 47.9407 16.1167 47.422 16.8809 47.192L41.7355 39.715L113.79 18.0463L138.644 10.5692C139.022 10.4549 139.42 10.4149 139.814 10.4516C140.208 10.4884 140.591 10.6011 140.94 10.7833C141.29 10.9655 141.599 11.2137 141.851 11.5136C142.103 11.8135 142.292 12.1592 142.408 12.5311L154.671 51.8855L154.901 52.6259Z" fill="#F2F2F2"/>
<path d="M169.248 51.8855L154.468 4.45432C154.222 3.66402 153.82 2.92908 153.285 2.29149C152.75 1.65389 152.092 1.12614 151.35 0.738394C150.607 0.350645 149.793 0.110493 148.956 0.0316693C148.119 -0.0471539 147.274 0.0368965 146.47 0.279009L111.526 10.7876L39.4753 32.46L4.53127 42.9723C2.90796 43.462 1.54874 44.5645 0.751951 46.0378C-0.0448324 47.5111 -0.21408 49.2348 0.281364 50.8306L50.7967 212.931C51.1991 214.219 52.0112 215.347 53.1138 216.148C54.2164 216.949 55.5513 217.383 56.9228 217.384C57.5576 217.384 58.1888 217.291 58.7952 217.106L82.7493 209.903L83.5028 209.674V208.9L82.7493 209.126L58.5729 216.399C57.1401 216.828 55.5925 216.682 54.2696 215.991C52.9467 215.301 51.9565 214.123 51.5163 212.716L1.00489 50.6122C0.786781 49.9152 0.710765 49.1827 0.78119 48.4568C0.851615 47.7309 1.06709 47.0257 1.4153 46.3817C1.7635 45.7377 2.23759 45.1675 2.81041 44.7038C3.38323 44.2401 4.04352 43.8919 4.75349 43.6793L39.6975 33.167L111.748 11.4983L146.692 0.986005C147.231 0.824545 147.79 0.74222 148.354 0.741704C149.562 0.74437 150.738 1.12709 151.708 1.83381C152.679 2.54053 153.394 3.5341 153.749 4.66901L168.461 51.8855L168.695 52.6258H169.478L169.248 51.8855Z" fill="#3F3D56"/>
<path d="M46.2206 47.313C45.4944 47.3125 44.7876 47.0834 44.2037 46.6593C43.6198 46.2352 43.1896 45.6383 42.9762 44.9564L38.1235 29.3835C37.9931 28.9652 37.9478 28.5257 37.9903 28.0902C38.0328 27.6547 38.1622 27.2317 38.3711 26.8454C38.58 26.459 38.8644 26.1168 39.2079 25.8385C39.5514 25.5601 39.9474 25.3509 40.3732 25.2229L106.659 5.28515C107.519 5.02735 108.448 5.11527 109.242 5.52962C110.036 5.94396 110.63 6.65088 110.894 7.49521L115.747 23.0683C116.009 23.9131 115.919 24.8257 115.498 25.6057C115.076 26.3857 114.357 26.9695 113.497 27.2291L47.2112 47.1668C46.8902 47.2636 46.5564 47.3129 46.2206 47.313Z" fill="#40DA59"/>
<path d="M71.6413 16.64C75.8028 16.64 79.1764 13.3256 79.1764 9.23701C79.1764 5.14843 75.8028 1.83398 71.6413 1.83398C67.4798 1.83398 64.1062 5.14843 64.1062 9.23701C64.1062 13.3256 67.4798 16.64 71.6413 16.64Z" fill="#40DA59"/>
<path d="M71.6413 13.9248C74.2765 13.9248 76.4128 11.826 76.4128 9.23702C76.4128 6.64801 74.2765 4.54919 71.6413 4.54919C69.0061 4.54919 66.8699 6.64801 66.8699 9.23702C66.8699 11.826 69.0061 13.9248 71.6413 13.9248Z" fill="white"/>
<path d="M227.046 215.492H99.7031C98.8541 215.491 98.0401 215.16 97.4398 214.57C96.8394 213.98 96.5017 213.18 96.5007 212.346V62.4349C96.5017 61.6007 96.8394 60.801 97.4397 60.2111C98.0401 59.6213 98.8541 59.2895 99.7031 59.2886H227.046C227.895 59.2895 228.709 59.6213 229.31 60.2112C229.91 60.801 230.248 61.6007 230.249 62.4349V212.346C230.248 213.18 229.91 213.98 229.31 214.57C228.709 215.16 227.895 215.491 227.046 215.492Z" fill="#E6E6E6"/>
<path d="M168.461 51.8856H89.1539C87.4559 51.8879 85.8282 52.5516 84.6276 53.7312C83.427 54.9108 82.7514 56.51 82.749 58.1781V209.126L83.5025 208.9V58.1781C83.5044 56.7061 84.1003 55.2949 85.1598 54.2541C86.2192 53.2132 87.6556 52.6277 89.1539 52.6259H168.694L168.461 51.8856ZM237.595 51.8856H89.1539C87.4559 51.8879 85.8282 52.5516 84.6276 53.7312C83.427 54.9108 82.7514 56.51 82.749 58.1781V227.707C82.7514 229.376 83.427 230.975 84.6276 232.154C85.8282 233.334 87.4559 233.998 89.1539 234H237.595C239.293 233.998 240.921 233.334 242.121 232.154C243.322 230.975 243.998 229.376 244 227.707V58.1781C243.998 56.51 243.322 54.9108 242.121 53.7312C240.921 52.5516 239.293 51.8879 237.595 51.8856ZM243.247 227.707C243.245 229.179 242.649 230.591 241.589 231.632C240.53 232.672 239.093 233.258 237.595 233.26H89.1539C87.6556 233.258 86.2192 232.672 85.1598 231.632C84.1003 230.591 83.5044 229.179 83.5025 227.707V58.1781C83.5044 56.7061 84.1003 55.2949 85.1598 54.2541C86.2192 53.2132 87.6556 52.6277 89.1539 52.6259H237.595C239.093 52.6277 240.53 53.2132 241.589 54.2541C242.649 55.2949 243.245 56.7061 243.247 58.1781V227.707Z" fill="#3F3D56"/>
<path d="M198.036 68.1722H128.713C127.814 68.1712 126.952 67.8199 126.317 67.1953C125.681 66.5708 125.323 65.724 125.322 64.8408V48.5541C125.323 47.6709 125.681 46.8241 126.317 46.1996C126.952 45.5751 127.814 45.2238 128.713 45.2228H198.036C198.935 45.2238 199.797 45.5751 200.432 46.1996C201.068 46.8241 201.426 47.6709 201.427 48.5541V64.8408C201.426 65.724 201.068 66.5708 200.432 67.1953C199.797 67.8199 198.935 68.1712 198.036 68.1722Z" fill="#40DA59"/>
<path d="M163.374 46.3333C167.536 46.3333 170.91 43.0188 170.91 38.9302C170.91 34.8417 167.536 31.5272 163.374 31.5272C159.213 31.5272 155.839 34.8417 155.839 38.9302C155.839 43.0188 159.213 46.3333 163.374 46.3333Z" fill="#40DA59"/>
<path d="M163.374 43.4394C165.909 43.4394 167.964 41.4205 167.964 38.9302C167.964 36.4399 165.909 34.4211 163.374 34.4211C160.84 34.4211 158.785 36.4399 158.785 38.9302C158.785 41.4205 160.84 43.4394 163.374 43.4394Z" fill="white"/>
</g>
<defs>
<clipPath id="clip0_100_675">
<rect width="244" height="234" fill="white"/>
</clipPath>
</defs>
</svg>
