<svg xmlns="http://www.w3.org/2000/svg" width="32" height="25" fill="none"><mask id="a" width="32" height="25" x="0" y="0" maskUnits="userSpaceOnUse" style="mask-type:luminance"><path fill="#fff" d="M32 0H0v25h32V0Z"/></mask><g mask="url(#a)"><path fill="url(#b)" d="M8.851 7.192c.296-1.533-.709-3.04-2.244-3.364a2.774 2.774 0 0 0-3.314 2.189l-1.266 6.565c-.296 1.534.709 3.04 2.244 3.365a2.774 2.774 0 0 0 3.314-2.19l1.266-6.565Z"/><path fill="url(#c)" d="M15.736 5.729c.296-1.534-.709-3.04-2.243-3.365a2.774 2.774 0 0 0-3.315 2.189L7.83 16.73c-.296 1.533.709 3.04 2.244 3.364a2.773 2.773 0 0 0 3.315-2.189L15.736 5.73Z"/><path fill="url(#d)" d="M23.42 4.52c.332-1.726-.798-3.421-2.526-3.787a3.121 3.121 0 0 0-3.73 2.463L13.767 20.82c-.332 1.725.798 3.42 2.525 3.785a3.121 3.121 0 0 0 3.73-2.463L23.42 4.52Z"/><path fill="url(#e)" d="M29.382 11.928c.333-1.725-.798-3.42-2.525-3.786a3.121 3.121 0 0 0-3.73 2.463l-1.12 5.81c-.333 1.725.798 3.42 2.525 3.785a3.121 3.121 0 0 0 3.73-2.463l1.12-5.809Z"/></g><defs><linearGradient id="b" x1="6.607" x2="4.054" y1="3.828" y2="15.901" gradientUnits="userSpaceOnUse"><stop stop-color="#E3FDE7"/><stop offset="1" stop-color="#40DA59"/></linearGradient><linearGradient id="c" x1="13.493" x2="9.757" y1="2.364" y2="20.027" gradientUnits="userSpaceOnUse"><stop stop-color="#E3FDE7"/><stop offset="1" stop-color="#40DA59"/></linearGradient><linearGradient id="d" x1="20.895" x2="15.865" y1=".733" y2="24.515" gradientUnits="userSpaceOnUse"><stop stop-color="#E3FDE7"/><stop offset="1" stop-color="#40DA59"/></linearGradient><linearGradient id="e" x1="26.857" x2="24.316" y1="8.142" y2="20.155" gradientUnits="userSpaceOnUse"><stop stop-color="#E3FDE7"/><stop offset="1" stop-color="#40DA59"/></linearGradient></defs></svg>